<svg width="600" height="146" viewBox="0 0 200 146" fill="none" xmlns="http://www.w3.org/2000/svg">
    <path
          d="M24.8709 3.90097C42.4627 1.29834 60.2197 -0.00545134 78 1.71305e-05C96.0514 1.71305e-05 113.783 1.33278 131.129 3.89348C145.823 6.07981 156 19.048 156 33.6186V78.6929C156 93.2635 145.823 106.232 131.129 108.418C116.554 110.568 101.863 111.831 87.1371 112.199C86.3963 112.214 85.6892 112.514 85.1611 113.038L54.08 144.358C53.3008 145.142 52.3085 145.676 51.2284 145.892C50.1483 146.109 49.0289 145.997 48.0114 145.573C46.994 145.148 46.1242 144.429 45.5119 143.507C44.8997 142.584 44.5724 141.499 44.5714 140.389V110.777C37.9844 110.169 31.4151 109.38 24.8709 108.411C10.1771 106.239 0 93.256 0 78.6854V33.6261C0 19.0555 10.1771 6.07232 24.8709 3.90097Z"
          transform="scale(1)"
          fill="#68B893"/>
    <text
        x="13"
        y="72"
        font-size="50"
        fill="white"
        font-weight="bold"
    >Word
    </text>
</svg>
