<svg width="733" height="467" viewBox="0 0 733 467" fill="none" xmlns="http://www.w3.org/2000/svg">
    <g filter="url(#filter0_d_2_574)">
        <g clip-path="url(#clip0_2_574)">
            <path
                d="M-47.2625 -4.51925C-41.5324 -37.0163 -38.6673 -53.2648 -26.7917 -61.5802C-14.9161 -69.8956 1.33243 -67.0306 33.8294 -61.3005L664.897 49.9738C692.752 54.8853 706.679 57.3411 713.807 67.5202C720.934 77.6993 718.478 91.6266 713.567 119.481L667.695 379.632C661.31 415.843 658.118 433.949 644.885 443.214C631.652 452.48 613.546 449.288 577.336 442.903L-45.8537 333.018C-73.7083 328.106 -87.6356 325.65 -94.7631 315.471C-101.891 305.292 -99.4348 291.365 -94.5233 263.51L-47.2625 -4.51925Z"
                fill="#D9FBEB"/>
            <path opacity="0.59"
                  d="M-102.123 22.8412C-61.907 76.9265 -105.046 130.831 -10.8787 105.036C83.2889 79.241 96.6814 103.269 107.407 117.292C118.132 131.315 118.019 183.313 190.606 189.47C263.193 195.627 265.939 169.634 359.898 239.835C453.858 310.036 429.606 333.983 486.073 334.105C542.539 334.227 572.109 338.291 650 378.459C727.891 418.626 773.555 440.724 808.549 422.801C843.544 404.877 835.568 362.861 878.495 406.953M-141.266 93.4777C-93.902 144.265 -129.48 201.148 -39.3177 168.393C50.8443 135.639 67.4356 158.539 80.0124 171.685C92.5891 184.83 99.552 236.577 172.595 237.239C245.637 237.902 244.831 211.832 347.848 274.61C450.865 337.387 429.999 363.04 486.185 358.911C542.371 354.783 572.337 356.601 655.283 390.704C738.23 424.808 786.66 443.359 819.031 422.891C851.403 402.423 837.752 361.217 886.453 401.857M-85.9071 -15.4239C-38.5855 35.3855 -74.2104 92.2513 15.9788 59.5386C106.168 26.8259 122.74 49.7335 135.306 62.8846C147.872 76.0357 154.792 127.785 227.834 128.481C300.876 129.177 300.092 103.107 403.057 165.932C506.022 228.757 485.134 254.4 541.324 250.297C597.513 246.194 627.478 248.026 710.396 282.167C793.315 316.309 841.729 334.882 874.118 314.429C906.506 293.976 892.89 252.764 941.556 293.426M-85.8767 -29.4741C-45.6602 24.6112 -88.7995 78.5159 5.3681 52.7208C99.5357 26.9257 112.928 50.954 123.653 64.9768C134.379 78.9995 134.266 130.998 206.853 137.155C279.44 143.312 282.185 117.318 376.145 187.52C470.105 257.721 445.853 281.667 502.319 281.79C558.786 281.912 588.355 285.976 666.247 326.143C744.138 366.311 789.801 388.409 824.796 370.485C859.791 352.562 851.815 310.546 894.742 354.637M-118.844 18.762C-73.9605 70.7794 -112.263 126.672 -20.5737 96.3485C71.1156 66.0249 86.5915 89.3522 98.5261 102.824C110.461 116.296 114.922 168.193 187.889 170.806C260.856 173.419 261.309 147.345 361.233 212.831C461.158 278.316 439.066 303.393 495.417 300.768C551.769 298.143 581.63 300.76 662.88 337.055C744.131 373.35 791.636 393.181 824.977 373.592C858.317 354.002 846.664 312.461 893.373 354.373M-168.3 160.693C-128.084 214.779 -171.223 268.683 -77.0555 242.888C17.1121 217.093 30.5046 241.121 41.2298 255.144C51.9551 269.167 51.8424 321.165 124.43 327.322C197.017 333.479 199.762 307.486 293.722 377.687C387.681 447.888 363.429 471.835 419.896 471.957C476.363 472.079 505.932 476.143 583.823 516.311C661.714 556.478 707.378 578.576 742.372 560.653C777.367 542.729 769.391 500.713 812.318 544.805M-207.442 231.33C-160.079 282.117 -195.657 339 -105.495 306.245C-15.3325 273.491 1.25878 296.391 13.8355 309.537C26.4123 322.682 33.3752 374.429 106.418 375.091C179.46 375.754 178.655 349.684 281.671 412.462C384.688 475.24 363.822 500.892 420.008 496.763C476.194 492.635 506.16 494.453 589.107 528.556C672.053 562.66 720.483 581.211 752.854 560.743C785.226 540.275 771.576 499.069 820.276 539.709M-152.084 122.428C-104.762 173.237 -140.387 230.103 -50.198 197.391C39.9912 164.678 56.5635 187.585 69.1294 200.737C81.6953 213.888 88.6153 265.637 161.657 266.333C234.7 267.029 233.915 240.959 336.88 303.784C439.845 366.609 418.957 392.252 475.147 388.149C531.336 384.046 561.301 385.878 644.219 420.019C727.138 454.161 775.552 472.734 807.941 452.281C840.329 431.828 826.713 390.616 875.379 431.278M-152.054 108.378C-111.837 162.463 -154.976 216.368 -60.8088 190.573C33.3588 164.778 46.7513 188.806 57.4766 202.829C68.2018 216.852 68.0892 268.85 140.676 275.007C213.263 281.164 216.009 255.17 309.968 325.372C403.928 395.573 379.676 419.519 436.143 419.642C492.609 419.764 522.179 423.828 600.07 463.995C677.961 504.163 723.625 526.261 758.619 508.337C793.614 490.414 785.638 448.398 828.565 492.489M-185.021 156.614C-140.137 208.631 -178.44 264.524 -86.7505 234.201C4.93876 203.877 20.4147 227.204 32.3493 240.676C44.284 254.148 48.7447 306.045 121.712 308.658C194.679 311.271 195.132 285.197 295.056 350.683C394.981 416.168 372.889 441.245 429.241 438.62C485.592 435.995 515.453 438.612 596.704 474.907C677.954 511.202 725.459 531.033 758.8 511.444C792.14 491.854 780.487 450.313 827.196 492.225M-11.7834 -97.959C28.4331 -43.8737 -14.7062 10.031 79.4614 -15.7641C173.629 -41.5592 187.021 -17.5309 197.747 -3.50813C208.472 10.5146 208.359 62.5126 280.946 68.6697C353.534 74.8267 356.279 48.8335 450.238 119.035C544.198 189.236 519.946 213.183 576.413 213.305C632.88 213.427 662.449 217.491 740.34 257.659C818.231 297.826 863.895 319.924 898.889 302.001C933.884 284.077 925.908 242.061 968.835 286.153M-50.9256 -27.3225C-3.56193 23.4651 -39.1397 80.3473 51.0224 47.5932C141.184 14.8392 157.776 37.7393 170.352 50.8846C182.929 64.0299 189.892 115.776 262.935 116.439C335.977 117.102 335.171 91.0318 438.188 153.81C541.205 216.587 520.339 242.24 576.525 238.111C632.711 233.983 662.677 235.8 745.624 269.904C828.57 304.008 877 322.558 909.371 302.09C941.743 281.622 928.092 240.417 976.793 281.057M4.43296 -136.224C51.7546 -85.4148 16.1297 -28.549 106.319 -61.2617C196.508 -93.9744 213.08 -71.0667 225.646 -57.9156C238.212 -44.7646 245.132 6.98499 318.174 7.6811C391.217 8.37721 390.432 -17.6929 493.397 45.132C596.362 107.957 575.474 133.6 631.664 129.497C687.853 125.394 717.818 127.226 800.736 161.367C883.655 195.509 932.069 214.082 964.458 193.628C996.846 173.175 983.23 131.964 1031.9 172.626M4.4634 -150.274C44.6798 -96.189 1.54055 -42.2843 95.7081 -68.0794C189.876 -93.8746 203.268 -69.8462 213.993 -55.8235C224.719 -41.8007 224.606 10.1973 297.193 16.3544C369.78 22.5114 372.526 -3.48179 466.485 66.7194C560.445 136.921 536.193 160.867 592.66 160.99C649.126 161.112 678.695 165.176 756.587 205.343C834.478 245.511 880.142 267.609 915.136 249.685C950.131 231.762 942.155 189.746 985.082 233.837M-28.5041 -102.038C16.3795 -50.0208 -21.9229 5.87196 69.7664 -24.4517C161.456 -54.7753 176.932 -31.448 188.866 -17.9759C200.801 -4.50381 205.262 47.3927 278.229 50.0055C351.196 52.6183 351.649 26.545 451.573 92.0304C551.498 157.516 529.406 182.593 585.757 179.968C642.109 177.343 671.97 179.96 753.221 216.255C834.471 252.55 881.976 272.381 915.317 252.792C948.657 233.202 937.004 191.661 983.713 233.573"
                  stroke="#295C21" stroke-opacity="0.34"/>
        </g>
        <g filter="url(#filter1_d_2_574)">
            <path
                d="M115.19 78.8565L101.638 87.1247C98.5302 80.6751 94.8418 77.074 90.5732 76.3213C88.4956 75.955 86.6961 76.2201 85.1748 77.1166C83.6601 77.9754 82.7799 79.1015 82.5343 80.4947C82.2886 81.888 82.5284 83.2892 83.2537 84.6983C84.2459 86.5816 87.4904 90.8227 92.9872 97.4217C98.1415 103.533 101.245 107.361 102.297 108.906C104.936 112.71 106.655 116.216 107.453 119.424C108.295 122.601 108.407 125.94 107.79 129.442C106.588 136.258 103.234 141.471 97.7289 145.082C92.2236 148.692 85.6745 149.828 78.0817 148.49C72.151 147.444 67.2314 145.082 63.323 141.403C59.4523 137.731 56.4971 132.512 54.4573 125.746L69.1873 120.073C71.8967 128.122 75.8579 132.606 81.0709 133.525C83.7907 134.005 86.2155 133.617 88.3454 132.362C90.4752 131.107 91.7227 129.444 92.0879 127.373C92.4199 125.49 92.053 123.484 90.9873 121.355C89.9216 119.225 87.3509 115.802 83.2751 111.084C75.5104 102.105 70.6579 95.3869 68.7174 90.9292C66.7836 86.4339 66.1686 82.1905 66.8724 78.199C67.8882 72.4378 70.949 67.8913 76.0546 64.5596C81.2046 61.1968 87.0094 60.0849 93.469 61.2239C97.6242 61.9566 101.402 63.6129 104.804 66.1927C108.242 68.7792 111.705 73.0005 115.19 78.8565Z"
                fill="#33333D"/>
            <path
                d="M139.643 71.5205L155.735 74.358L150.208 105.706L178.086 110.621L183.613 79.2737L199.649 82.1012L184.999 165.187L168.963 162.36L175.387 125.928L147.509 121.013L141.085 157.444L124.993 154.606L139.643 71.5205Z"
                fill="#33333D"/>
            <path d="M223.357 86.2815L239.109 89.059L224.459 172.145L208.706 169.367L223.357 86.2815Z" fill="#33333D"/>
            <path
                d="M263.893 93.4291L280.722 96.3965C289.939 98.0217 296.347 100.006 299.946 102.349C303.589 104.661 306.265 107.928 307.974 112.151C309.683 116.373 310.08 121.083 309.164 126.279C308.201 131.739 306.072 136.081 302.777 139.305C299.526 142.498 295.091 144.57 289.47 145.52L302.676 185.937L285.337 182.879L272.786 144.384L271.313 144.124L265.108 179.313L249.243 176.515L263.893 93.4291ZM274.032 128.704L279.018 129.583C284.08 130.476 287.672 130.43 289.793 129.445C291.952 128.467 293.3 126.452 293.838 123.402C294.157 121.595 293.96 119.949 293.248 118.465C292.543 116.942 291.446 115.759 289.959 114.915C288.479 114.032 285.624 113.218 281.393 112.472L277.03 111.703L274.032 128.704Z"
                fill="#33333D"/>
            <path d="M334.801 105.932L350.553 108.71L335.903 191.795L320.15 189.018L334.801 105.932Z" fill="#33333D"/>
            <path
                d="M366.044 111.441L412.111 119.564L409.362 135.153L394.177 132.476L382.275 199.972L366.183 197.135L378.085 129.638L363.296 127.03L366.044 111.441Z"
                fill="#33333D"/>
            <path
                d="M468.542 127.359C480.328 129.438 489.701 135.478 496.662 145.48C503.661 155.488 506.081 166.612 503.924 178.85C501.786 190.975 495.783 200.496 485.917 207.415C476.088 214.34 465.205 216.75 453.268 214.645C440.764 212.44 431.136 206.297 424.384 196.215C417.632 186.134 415.301 175.162 417.393 163.301C418.794 155.355 422.008 148.39 427.037 142.405C432.065 136.419 438.283 132.08 445.691 129.387C453.143 126.663 460.76 125.987 468.542 127.359ZM465.643 142.806C457.937 141.447 450.987 142.978 444.793 147.399C438.6 151.82 434.776 158.154 433.322 166.401C431.702 175.588 433.726 183.439 439.393 189.951C443.794 195.037 449.318 198.166 455.967 199.338C463.484 200.664 470.365 199.081 476.61 194.592C482.854 190.102 486.677 183.884 488.078 175.939C489.472 168.032 487.988 160.878 483.624 154.479C479.267 148.042 473.273 144.151 465.643 142.806Z"
                fill="#33333D"/>
            <path
                d="M533.131 140.903L549.96 143.87C559.177 145.496 565.585 147.48 569.184 149.823C572.827 152.135 575.503 155.402 577.212 159.625C578.922 163.847 579.318 168.557 578.402 173.753C577.439 179.213 575.31 183.555 572.015 186.779C568.765 189.972 564.329 192.044 558.709 192.994L571.914 233.411L554.575 230.353L542.024 191.858L540.551 191.598L534.347 226.786L518.481 223.989L533.131 140.903ZM543.27 176.178L548.256 177.057C553.318 177.95 556.91 177.904 559.031 176.919C561.19 175.941 562.538 173.926 563.076 170.876C563.395 169.069 563.198 167.423 562.486 165.939C561.781 164.416 560.685 163.233 559.198 162.389C557.717 161.506 554.862 160.692 550.631 159.946L546.268 159.177L543.27 176.178Z"
                fill="#33333D"/>
            <path d="M604.039 153.406L619.791 156.184L605.141 239.269L589.389 236.492L604.039 153.406Z" fill="#33333D"/>
            <path d="M44.8954 203.963L64.0851 207.347L62.3987 216.911L43.2089 213.528L44.8954 203.963Z" fill="#33333D"/>
            <path
                d="M78.1739 178.693L88.5999 180.531L90.3736 217.301L106.543 183.695L115.345 185.247L119.158 222.377L133.326 188.418L143.752 190.256L121.481 243.442L111.32 241.65L107.397 204.035L91.0344 238.073L80.9862 236.301L78.1739 178.693Z"
                fill="#88C9A1"/>
            <path d="M151.307 191.588L161.808 193.44L152.041 248.83L141.54 246.979L151.307 191.588Z" fill="#88C9A1"/>
            <path
                d="M168.268 194.579L198.979 199.994L197.146 210.387L187.022 208.602L179.088 253.599L168.36 251.708L176.294 206.71L166.435 204.972L168.268 194.579Z"
                fill="#88C9A1"/>
            <path
                d="M206.194 201.266L216.922 203.158L213.237 224.056L231.822 227.333L235.507 206.435L246.198 208.32L236.431 263.71L225.74 261.825L230.023 237.538L211.438 234.261L207.155 258.548L196.427 256.657L206.194 201.266Z"
                fill="#88C9A1"/>
            <path
                d="M280.724 214.408L308.3 219.27L306.487 229.55L289.375 226.533L287.602 236.587L304.714 239.604L302.928 249.733L285.816 246.716L281.421 271.643L270.957 269.798L280.724 214.408Z"
                fill="#88C9A1"/>
            <path
                d="M318.461 221.062L329.681 223.04C335.825 224.124 340.097 225.446 342.496 227.008C344.925 228.55 346.709 230.728 347.849 233.543C348.988 236.358 349.253 239.498 348.642 242.962C348 246.602 346.581 249.497 344.384 251.646C342.217 253.775 339.26 255.156 335.513 255.789L344.316 282.734L332.757 280.695L324.39 255.032L323.408 254.858L319.271 278.318L308.694 276.453L318.461 221.062ZM325.221 244.579L328.545 245.165C331.919 245.76 334.314 245.729 335.728 245.072C337.167 244.42 338.066 243.078 338.425 241.044C338.637 239.839 338.506 238.742 338.031 237.752C337.561 236.738 336.83 235.949 335.839 235.386C334.852 234.797 332.948 234.255 330.128 233.757L327.219 233.244L325.221 244.579Z"
                fill="#88C9A1"/>
            <path d="M361.865 228.715L372.366 230.567L362.6 285.957L352.098 284.106L361.865 228.715Z" fill="#88C9A1"/>
            <path
                d="M384.341 232.678L414.675 238.027L412.855 248.344L393.023 244.848L391.257 254.864L411.089 258.361L409.303 268.49L389.471 264.993L386.902 279.565L406.734 283.062L404.908 293.418L374.574 288.069L384.341 232.678Z"
                fill="#88C9A1"/>
            <path
                d="M424.609 239.779L434.733 241.564L452.142 282.217L458.569 245.767L469.146 247.632L459.379 303.022L449.218 301.231L431.827 260.697L425.42 297.034L414.843 295.169L424.609 239.779Z"
                fill="#88C9A1"/>
            <path
                d="M481.876 249.876L494.418 252.088C502.502 253.513 508.331 255.576 511.905 258.277C515.484 260.953 518.149 264.762 519.9 269.704C521.652 274.646 521.998 280.117 520.94 286.117C520.188 290.384 518.777 294.186 516.709 297.523C514.67 300.839 512.184 303.455 509.249 305.371C506.34 307.291 503.345 308.445 500.264 308.834C497.184 309.222 492.042 308.782 484.84 307.512L472.11 305.267L481.876 249.876ZM490.623 261.902L484.468 296.808L489.379 297.674C494.214 298.526 497.812 298.591 500.172 297.869C502.558 297.15 504.674 295.608 506.519 293.242C508.365 290.875 509.624 287.784 510.297 283.968C511.332 278.094 510.486 273.247 507.758 269.427C505.3 265.991 500.784 263.693 494.212 262.534L490.623 261.902Z"
                fill="#88C9A1"/>
            <path
                d="M563.805 272.088L554.77 277.6C552.698 273.3 550.239 270.899 547.393 270.398C546.008 270.153 544.809 270.33 543.795 270.928C542.785 271.5 542.198 272.251 542.034 273.18C541.87 274.109 542.03 275.043 542.514 275.982C543.175 277.238 545.338 280.065 549.003 284.465C552.439 288.539 554.508 291.091 555.209 292.12C556.969 294.657 558.115 296.994 558.647 299.133C559.208 301.251 559.283 303.477 558.871 305.812C558.07 310.355 555.834 313.831 552.164 316.238C548.494 318.645 544.128 319.402 539.066 318.51C535.112 317.813 531.832 316.238 529.227 313.785C526.646 311.337 524.676 307.858 523.316 303.347L533.136 299.566C534.942 304.931 537.583 307.921 541.059 308.533C542.872 308.853 544.488 308.595 545.908 307.758C547.328 306.921 548.16 305.812 548.403 304.432C548.625 303.177 548.38 301.839 547.67 300.42C546.959 299 545.245 296.718 542.528 293.573C537.352 287.587 534.117 283.108 532.823 280.136C531.534 277.139 531.124 274.31 531.593 271.649C532.27 267.809 534.311 264.778 537.714 262.556C541.148 260.315 545.018 259.573 549.324 260.333C552.094 260.821 554.613 261.925 556.88 263.645C559.173 265.37 561.481 268.184 563.805 272.088Z"
                fill="#88C9A1"/>
            <path d="M571.254 296.774L590.443 300.158L588.757 309.722L569.567 306.339L571.254 296.774Z" fill="#33333D"/>
        </g>
    </g>
    <defs>
        <filter id="filter0_d_2_574" x="-104.942" y="-73.4558" width="837.928" height="539.903"
                filterUnits="userSpaceOnUse" color-interpolation-filters="sRGB">
            <feFlood flood-opacity="0" result="BackgroundImageFix"/>
            <feColorMatrix in="SourceAlpha" type="matrix" values="0 0 0 0 0 0 0 0 0 0 0 0 0 0 0 0 0 0 127 0"
                           result="hardAlpha"/>
            <feOffset dx="9" dy="10"/>
            <feComposite in2="hardAlpha" operator="out"/>
            <feColorMatrix type="matrix" values="0 0 0 0 0.407843 0 0 0 0 0.721569 0 0 0 0 0.576471 0 0 0 1 0"/>
            <feBlend mode="normal" in2="BackgroundImageFix" result="effect1_dropShadow_2_574"/>
            <feBlend mode="normal" in="SourceGraphic" in2="effect1_dropShadow_2_574" result="shape"/>
        </filter>
        <filter id="filter1_d_2_574" x="39.2089" y="60.7917" width="584.582" height="266.08"
                filterUnits="userSpaceOnUse" color-interpolation-filters="sRGB">
            <feFlood flood-opacity="0" result="BackgroundImageFix"/>
            <feColorMatrix in="SourceAlpha" type="matrix" values="0 0 0 0 0 0 0 0 0 0 0 0 0 0 0 0 0 0 127 0"
                           result="hardAlpha"/>
            <feOffset dy="4"/>
            <feGaussianBlur stdDeviation="2"/>
            <feComposite in2="hardAlpha" operator="out"/>
            <feColorMatrix type="matrix" values="0 0 0 0 0 0 0 0 0 0 0 0 0 0 0 0 0 0 0.25 0"/>
            <feBlend mode="normal" in2="BackgroundImageFix" result="effect1_dropShadow_2_574"/>
            <feBlend mode="normal" in="SourceGraphic" in2="effect1_dropShadow_2_574" result="shape"/>
        </filter>
        <clipPath id="clip0_2_574">
            <path
                d="M-47.2625 -4.51925C-41.5324 -37.0163 -38.6673 -53.2648 -26.7917 -61.5802C-14.9161 -69.8956 1.33243 -67.0306 33.8294 -61.3005L664.897 49.9738C692.752 54.8853 706.679 57.3411 713.807 67.5202C720.934 77.6993 718.478 91.6266 713.567 119.481L667.695 379.632C661.31 415.843 658.118 433.949 644.885 443.214C631.652 452.48 613.546 449.288 577.336 442.903L-45.8537 333.018C-73.7083 328.106 -87.6356 325.65 -94.7631 315.471C-101.891 305.292 -99.4348 291.365 -94.5233 263.51L-47.2625 -4.51925Z"
                fill="white"/>
        </clipPath>
    </defs>
</svg>
