<svg width="500" height="227" viewBox="0 0 138 227" fill="none" xmlns="http://www.w3.org/2000/svg">
    <path fill-rule="evenodd" clip-rule="evenodd"
          d="M41.922 121.984C20.1367 111.775 5.0481 89.6494 5.0481 64C5.0481 28.6538 33.7019 0 69.0481 0C104.394 0 133.048 28.6538 133.048 64C133.048 89.6493 117.96 111.775 96.1742 121.984L116.679 157.5C124.377 170.833 114.755 187.5 99.359 187.5H38.7372C23.3412 187.5 13.7187 170.833 21.4167 157.5L41.922 121.984Z"
          fill="#E18D8D"/>
    <text fill="#333333" xml:space="preserve" style="white-space: pre" font-family="Century Gothic" font-size="25"
          font-weight="bold" letter-spacing="0em"><tspan x="53.0625" y="165.07">69</tspan></text>
    <circle cx="5.5" cy="5.5" r="5.5" transform="matrix(-1 0 0 1 38.0479 43)" fill="#333333"/>
    <circle cx="5.5" cy="5.5" r="5.5" transform="matrix(-1 0 0 1 96.0479 54)" fill="#333333"/>
    <path
        d="M53.9938 60.2503C53.6733 60.1617 53.3379 60.3496 53.2864 60.6782C53.1023 61.8509 53.3182 63.0582 53.9094 64.101C54.6001 65.3194 55.7465 66.2135 57.0964 66.5866C58.4463 66.9597 59.8891 66.7813 61.1075 66.0906C62.1504 65.4995 62.9556 64.5744 63.4 63.4737C63.5245 63.1653 63.3333 62.8318 63.0128 62.7432V62.7432C62.6922 62.6546 62.3646 62.8453 62.2298 63.1493C61.8777 63.9433 61.2784 64.6095 60.5136 65.043C59.5731 65.5762 58.4593 65.7139 57.4172 65.4259C56.3752 65.1378 55.4902 64.4476 54.957 63.5071C54.5235 62.7423 54.3514 61.863 54.4571 61.0008C54.4975 60.6707 54.3143 60.3389 53.9938 60.2503V60.2503Z"
        fill="#333333"/>
</svg>
