<svg width="498" height="210" viewBox="0 0 498 210" fill="none" xmlns="http://www.w3.org/2000/svg">
    <g filter="url(#filter0_d_2_966)">
        <rect y="-90.9102" width="443.942" height="294.428" rx="13" transform="rotate(-10 0 -90.9102)" fill="#D9FBEB"/>
        <path
            d="M98.6291 151.138C94.8591 151.803 91.3974 151.782 88.244 151.076C85.1039 150.351 82.5131 149.066 80.4715 147.222C78.4298 145.377 77.1702 143.101 76.6925 140.392C76.3241 138.303 76.4593 136.301 77.0979 134.388C77.75 132.456 78.7981 130.765 80.2421 129.316C81.6833 127.85 83.3951 126.774 85.3775 126.088L85.3171 125.745C82.5456 125.679 80.1463 124.764 78.119 123.001C76.0889 121.222 74.8321 118.961 74.3487 116.22C73.8911 113.625 74.2428 111.182 75.4037 108.89C76.5618 106.583 78.3606 104.616 80.8002 102.991C83.2532 101.347 86.1688 100.227 89.5471 99.6317C92.9254 99.0361 96.0401 99.0927 98.8911 99.8015C101.759 100.508 104.131 101.747 106.008 103.519C107.883 105.275 109.056 107.441 109.527 110.017C109.997 112.778 109.573 115.335 108.254 117.687C106.936 120.04 105.01 121.717 102.478 122.719L102.538 123.062C104.603 123.035 106.555 123.464 108.394 124.352C110.247 125.22 111.81 126.45 113.084 128.043C114.371 129.617 115.207 131.446 115.592 133.533C116.053 136.245 115.64 138.816 114.352 141.248C113.065 143.679 111.061 145.774 108.342 147.533C105.637 149.272 102.399 150.474 98.6291 151.138ZM97.2564 143.354C98.9374 143.057 100.353 142.496 101.503 141.671C102.65 140.829 103.48 139.808 103.992 138.607C104.517 137.387 104.655 136.067 104.404 134.647C104.148 133.194 103.555 131.978 102.625 130.998C101.692 130.001 100.541 129.295 99.1722 128.881C97.8004 128.449 96.2985 128.378 94.6665 128.665C93.0508 128.95 91.664 129.531 90.5062 130.409C89.3454 131.27 88.4971 132.328 87.9613 133.583C87.4389 134.82 87.3057 136.164 87.5618 137.617C87.8122 139.037 88.3847 140.231 89.2792 141.201C90.1709 142.155 91.3079 142.829 92.6903 143.225C94.0697 143.604 95.5918 143.647 97.2564 143.354ZM93.3068 120.954C94.7103 120.707 95.9085 120.201 96.9012 119.437C97.894 118.673 98.6112 117.73 99.0529 116.609C99.4947 115.488 99.599 114.266 99.3659 112.944C99.1357 111.639 98.6242 110.551 97.8314 109.681C97.0357 108.795 96.0503 108.169 94.8753 107.804C93.6975 107.423 92.3905 107.359 90.9543 107.612C89.5344 107.863 88.3281 108.37 87.3354 109.134C86.3398 109.882 85.6197 110.808 85.175 111.913C84.7439 112.998 84.6434 114.194 84.8736 115.5C85.1067 116.822 85.6225 117.934 86.4211 118.836C87.2197 119.739 88.2161 120.379 89.4102 120.758C90.6044 121.136 91.9033 121.202 93.3068 120.954ZM145.233 143.35C141.02 144.076 137.214 143.678 133.816 142.157C130.434 140.633 127.583 138.065 125.264 134.452C122.96 130.837 121.333 126.286 120.382 120.799C119.418 115.332 119.405 110.53 120.341 106.394C121.294 102.254 123.103 98.9146 125.769 96.3749C128.447 93.8159 131.884 92.1667 136.078 91.4271C140.272 90.6875 144.058 91.0634 147.434 92.5547C150.826 94.0432 153.678 96.5693 155.989 100.133C158.297 103.681 159.925 108.189 160.873 113.66C161.843 119.159 161.855 124.004 160.911 128.192C159.983 132.377 158.191 135.764 155.534 138.353C152.878 140.942 149.444 142.607 145.233 143.35ZM143.684 134.561C146.556 134.055 148.594 132.206 149.799 129.015C151.003 125.825 151.088 121.342 150.053 115.567C149.382 111.765 148.432 108.668 147.203 106.276C145.99 103.882 144.561 102.173 142.917 101.151C141.289 100.125 139.52 99.7809 137.61 100.118C134.754 100.621 132.721 102.452 131.511 105.61C130.301 108.768 130.19 113.197 131.178 118.896C131.857 122.747 132.808 125.895 134.03 128.338C135.265 130.762 136.706 132.494 138.353 133.532C139.997 134.555 141.774 134.898 143.684 134.561ZM192.695 134.981C188.481 135.707 184.675 135.31 181.277 133.789C177.895 132.265 175.045 129.696 172.725 126.084C170.421 122.468 168.794 117.917 167.844 112.43C166.88 106.963 166.866 102.161 167.802 98.0248C168.755 93.8855 170.564 90.5459 173.23 88.0062C175.908 85.4472 179.345 83.798 183.539 83.0584C187.734 82.3188 191.519 82.6947 194.895 84.186C198.287 85.6745 201.139 88.2006 203.45 91.7644C205.758 95.3119 207.386 99.8207 208.334 105.291C209.304 110.791 209.317 115.635 208.372 119.823C207.444 124.009 205.652 127.396 202.996 129.984C200.339 132.573 196.905 134.239 192.695 134.981ZM191.145 126.193C194.017 125.686 196.056 123.838 197.26 120.647C198.464 117.456 198.549 112.973 197.514 107.199C196.843 103.396 195.893 100.299 194.664 97.9076C193.451 95.5132 192.022 93.8047 190.378 92.7821C188.75 91.7566 186.981 91.4122 185.072 91.7489C182.216 92.2525 180.183 94.0834 178.973 97.2416C177.762 100.4 177.651 104.828 178.639 110.527C179.319 114.378 180.269 117.526 181.491 119.969C182.726 122.393 184.167 124.125 185.814 125.164C187.459 126.186 189.236 126.529 191.145 126.193ZM239.128 126.365C235.358 127.029 231.896 127.009 228.743 126.303C225.603 125.577 223.012 124.293 220.97 122.448C218.928 120.604 217.669 118.327 217.191 115.618C216.823 113.529 216.958 111.528 217.597 109.615C218.249 107.682 219.297 105.991 220.741 104.542C222.182 103.076 223.894 102 225.876 101.314L225.816 100.972C223.044 100.905 220.645 99.9902 218.618 98.2274C216.587 96.4482 215.331 94.1878 214.847 91.446C214.39 88.8511 214.741 86.4079 215.902 84.1166C217.06 81.809 218.859 79.8427 221.299 78.2178C223.752 76.5736 226.667 75.4537 230.046 74.8581C233.424 74.2624 236.539 74.319 239.39 75.0278C242.257 75.7338 244.63 76.973 246.507 78.7454C248.382 80.5015 249.554 82.6674 250.025 85.2431C250.495 88.0041 250.071 90.561 248.753 92.9137C247.434 95.2665 245.509 96.9438 242.976 97.9457L243.037 98.2884C245.102 98.2608 247.054 98.6907 248.893 99.578C250.746 100.446 252.309 101.677 253.583 103.269C254.87 104.843 255.706 106.673 256.09 108.759C256.552 111.471 256.138 114.043 254.851 116.474C253.563 118.906 251.56 121 248.841 122.759C246.135 124.498 242.898 125.7 239.128 126.365ZM237.755 118.58C239.436 118.283 240.852 117.723 242.002 116.897C243.149 116.055 243.979 115.034 244.49 113.833C245.016 112.613 245.153 111.293 244.903 109.873C244.647 108.421 244.054 107.204 243.124 106.224C242.191 105.228 241.04 104.522 239.671 104.107C238.299 103.676 236.797 103.604 235.165 103.892C233.549 104.177 232.163 104.758 231.005 105.635C229.844 106.496 228.996 107.554 228.46 108.81C227.937 110.046 227.804 111.391 228.06 112.843C228.311 114.263 228.883 115.458 229.778 116.427C230.67 117.381 231.807 118.055 233.189 118.451C234.568 118.83 236.09 118.873 237.755 118.58ZM233.805 96.1804C235.209 95.9329 236.407 95.4272 237.4 94.6632C238.393 93.8991 239.11 92.9565 239.552 91.8353C239.993 90.7141 240.098 89.4926 239.865 88.1706C239.634 86.865 239.123 85.7773 238.33 84.9074C237.534 84.0212 236.549 83.3957 235.374 83.0307C234.196 82.6494 232.889 82.5854 231.453 82.8386C230.033 83.089 228.827 83.5962 227.834 84.3602C226.838 85.1079 226.118 86.0342 225.674 87.1391C225.242 88.2247 225.142 89.4204 225.372 90.726C225.605 92.0479 226.121 93.1602 226.92 94.0627C227.718 94.9652 228.715 95.6056 229.909 95.984C231.103 96.3624 232.402 96.4279 233.805 96.1804ZM287.074 80.3764C286.53 78.4362 285.419 77.0503 283.741 76.2188C282.063 75.3872 279.951 75.1958 277.405 75.6448C275.675 75.9498 274.257 76.4521 273.152 77.1518C272.044 77.8352 271.247 78.6573 270.76 79.6182C270.29 80.5762 270.149 81.5938 270.339 82.6709C270.465 83.5743 270.791 84.3245 271.317 84.9217C271.859 85.516 272.541 85.9932 273.361 86.3533C274.179 86.6971 275.101 86.9637 276.127 87.1529C277.151 87.3259 278.231 87.4383 279.367 87.4903L284.062 87.7732C286.335 87.8772 288.457 88.1761 290.429 88.6698C292.401 89.1635 294.161 89.888 295.709 90.8434C297.258 91.7988 298.541 93.0197 299.561 94.5059C300.596 95.9892 301.306 97.7739 301.691 99.86C302.216 102.931 301.901 105.729 300.748 108.255C299.608 110.761 297.695 112.891 295.009 114.643C292.336 116.377 288.96 117.603 284.88 118.323C280.832 119.036 277.198 119.038 273.976 118.327C270.771 117.613 268.113 116.189 266.003 114.053C263.907 111.899 262.5 109.025 261.783 105.433L272.04 103.624C272.45 105.285 273.179 106.604 274.227 107.58C275.287 108.538 276.586 109.175 278.123 109.493C279.673 109.792 281.362 109.78 283.19 109.458C284.985 109.141 286.498 108.605 287.728 107.85C288.974 107.092 289.882 106.183 290.453 105.123C291.023 104.063 291.202 102.93 290.989 101.722C290.79 100.596 290.289 99.7082 289.484 99.0591C288.696 98.4072 287.618 97.9242 286.25 97.61C284.899 97.2931 283.27 97.0754 281.365 96.9571L275.664 96.5487C271.256 96.2659 267.635 95.2468 264.801 93.4916C261.967 91.7363 260.232 89.0049 259.595 85.2974C259.044 82.2647 259.384 79.4702 260.616 76.9139C261.864 74.3548 263.812 72.1855 266.46 70.406C269.108 68.6266 272.26 67.4145 275.916 66.7699C279.637 66.1138 282.997 66.1777 285.996 66.9614C289.011 67.7423 291.494 69.1303 293.444 71.1254C295.394 73.1206 296.657 75.6071 297.233 78.5851L287.074 80.3764Z"
            fill="#68B894"/>
        <path
            d="M61.144 65.307L65.7141 64.5012C68.2171 64.0598 70.0368 63.9717 71.173 64.2367C72.3176 64.4897 73.3044 65.0773 74.1334 65.9994C74.9624 66.9216 75.5017 68.0905 75.7513 69.5061C76.0136 70.9936 75.8743 72.3033 75.3335 73.4353C74.8011 74.5551 73.8621 75.4982 72.5163 76.2643L79.6457 85.3836L74.9371 86.2139L68.1534 77.5255L67.7533 77.596L69.4437 87.1825L65.1352 87.9422L61.144 65.307ZM67.0126 73.3952L68.3667 73.1564C69.7414 72.914 70.6535 72.5681 71.1031 72.1186C71.563 71.6673 71.7196 71.0262 71.5731 70.1953C71.4863 69.7029 71.283 69.2998 70.9632 68.9859C70.6416 68.6619 70.2519 68.4609 69.7939 68.383C69.3341 68.2948 68.5297 68.352 67.3808 68.5546L66.1959 68.7635L67.0126 73.3952ZM89.7261 59.6802C92.9267 59.1158 95.8804 59.7902 98.5871 61.7035C101.304 63.6149 102.956 66.2376 103.544 69.5716C104.127 72.8748 103.481 75.871 101.607 78.5602C99.7432 81.2475 97.1905 82.877 93.9488 83.4486C90.5533 84.0473 87.5251 83.3702 84.8643 81.4171C82.2035 79.4641 80.5882 76.8719 80.0184 73.6405C79.6368 71.476 79.809 69.3936 80.5352 67.3933C81.2614 65.3931 82.4444 63.7037 84.084 62.3251C85.7322 60.9344 87.6129 60.0528 89.7261 59.6802ZM90.4234 63.9045C88.3306 64.2735 86.6998 65.3121 85.5307 67.0202C84.3616 68.7283 83.9752 70.7057 84.3713 72.9523C84.8127 75.4553 86.0594 77.2769 88.1114 78.4171C89.7074 79.3098 91.4081 79.5969 93.2136 79.2786C95.255 78.9186 96.8635 77.8734 98.0392 76.143C99.215 74.4125 99.612 72.465 99.2303 70.3005C98.8505 68.1462 97.8062 66.4529 96.0975 65.2205C94.3869 63.9778 92.4956 63.5391 90.4234 63.9045ZM116.193 55.0134C119.393 54.449 122.347 55.1235 125.054 57.0367C127.771 58.9481 129.423 61.5708 130.011 64.9048C130.593 68.208 129.948 71.2042 128.074 73.8934C126.21 76.5807 123.657 78.2102 120.416 78.7818C117.02 79.3805 113.992 78.7034 111.331 76.7503C108.67 74.7973 107.055 72.2051 106.485 68.9737C106.103 66.8092 106.276 64.7268 107.002 62.7265C107.728 60.7263 108.911 59.0369 110.551 57.6583C112.199 56.2676 114.08 55.386 116.193 55.0134ZM116.89 59.2377C114.797 59.6067 113.166 60.6453 111.997 62.3534C110.828 64.0615 110.442 66.0389 110.838 68.2855C111.279 70.7885 112.526 72.6101 114.578 73.7503C116.174 74.643 117.875 74.9301 119.68 74.6118C121.722 74.2518 123.33 73.2066 124.506 71.4762C125.682 69.7457 126.079 67.7982 125.697 65.6337C125.317 63.4794 124.273 61.7861 122.564 60.5537C120.854 59.311 118.962 58.8723 116.89 59.2377ZM134.251 52.4164L138.467 51.6729L146.482 66.5381L149.007 49.8143L153.162 49.0818L160.969 71.0441L156.815 71.7766L151.863 57.9102L149.567 73.0546L145.766 73.7248L138.491 60.2681L138.534 75L134.333 75.7407L134.251 52.4164ZM190.78 46.5581L188.271 49.9673C185.838 48.1646 183.339 47.4893 180.774 47.9415C178.61 48.3232 176.914 49.3838 175.687 51.1233C174.47 52.8609 174.052 54.812 174.434 56.9766C174.7 58.4846 175.264 59.7654 176.127 60.8191C176.99 61.8728 178.08 62.6272 179.398 63.0824C180.716 63.5375 182.108 63.6358 183.575 63.3771C184.827 63.1565 185.93 62.724 186.884 62.0796C187.837 61.4251 188.826 60.3728 189.85 58.9229L193.311 61.4542C191.926 63.3801 190.547 64.7922 189.171 65.6905C187.794 66.5786 186.151 67.1908 184.243 67.5273C180.725 68.1477 177.646 67.5429 175.007 65.713C172.376 63.871 170.753 61.206 170.138 57.7182C169.74 55.4613 169.895 53.3663 170.601 51.433C171.317 49.4979 172.53 47.8296 174.24 46.4281C175.96 45.0248 177.918 44.1296 180.113 43.7425C181.98 43.4133 183.845 43.4917 185.708 43.9777C187.581 44.4619 189.271 45.322 190.78 46.5581ZM204.456 39.4502C207.657 38.8858 210.61 39.5602 213.317 41.4735C216.034 43.3849 217.687 46.0076 218.274 49.3416C218.857 52.6448 218.211 55.641 216.337 58.3301C214.473 61.0175 211.921 62.647 208.679 63.2186C205.283 63.8173 202.255 63.1402 199.594 61.1871C196.934 59.2341 195.318 56.6419 194.749 53.4105C194.367 51.2459 194.539 49.1636 195.265 47.1633C195.992 45.1631 197.174 43.4737 198.814 42.0951C200.462 40.7044 202.343 39.8228 204.456 39.4502ZM205.153 43.6745C203.061 44.0435 201.43 45.0821 200.261 46.7902C199.092 48.4983 198.705 50.4757 199.101 52.7223C199.543 55.2253 200.789 57.0469 202.842 58.1871C204.437 59.0798 206.138 59.3669 207.944 59.0486C209.985 58.6886 211.594 57.6434 212.769 55.913C213.945 54.1825 214.342 52.235 213.96 50.0705C213.581 47.9162 212.536 46.2229 210.828 44.9905C209.117 43.7478 207.226 43.3091 205.153 43.6745ZM220.344 37.2357L225.453 36.3349C228.746 35.7543 231.265 35.7332 233.01 36.2717C234.753 36.7999 236.305 37.8908 237.665 39.5444C239.024 41.198 239.921 43.2506 240.353 45.7024C240.66 47.4463 240.651 49.1033 240.325 50.6734C240.007 52.2313 239.421 53.5829 238.565 54.7281C237.719 55.8715 236.734 56.7327 235.609 57.3118C234.484 57.891 232.455 58.4392 229.521 58.9565L224.335 59.8709L220.344 37.2357ZM225.37 40.6334L227.885 54.8977L229.886 54.545C231.855 54.1977 233.241 53.7206 234.044 53.1136C234.857 52.5049 235.451 51.6173 235.827 50.451C236.204 49.2846 236.254 47.9218 235.979 46.3625C235.556 43.962 234.556 42.2186 232.978 41.1322C231.558 40.1557 229.509 39.9035 226.832 40.3756L225.37 40.6334ZM242.41 33.3449L254.766 31.1662L255.51 35.3824L247.431 36.8068L248.153 40.8999L256.232 39.4755L256.961 43.6147L248.883 45.0392L249.933 50.9942L258.011 49.5698L258.758 53.8013L246.401 55.9801L242.41 33.3449Z"
            fill="#33333D"/>
    </g>
    <defs>
        <filter id="filter0_d_2_966" x="0" y="-168" width="497.325" height="377.045" filterUnits="userSpaceOnUse"
                color-interpolation-filters="sRGB">
            <feFlood flood-opacity="0" result="BackgroundImageFix"/>
            <feColorMatrix in="SourceAlpha" type="matrix" values="0 0 0 0 0 0 0 0 0 0 0 0 0 0 0 0 0 0 127 0"
                           result="hardAlpha"/>
            <feOffset dx="9" dy="10"/>
            <feComposite in2="hardAlpha" operator="out"/>
            <feColorMatrix type="matrix" values="0 0 0 0 0.407843 0 0 0 0 0.721569 0 0 0 0 0.576471 0 0 0 1 0"/>
            <feBlend mode="normal" in2="BackgroundImageFix" result="effect1_dropShadow_2_966"/>
            <feBlend mode="normal" in="SourceGraphic" in2="effect1_dropShadow_2_966" result="shape"/>
        </filter>
    </defs>
</svg>
