<svg width="492" height="692" viewBox="0 0 492 592" fill="none" xmlns="http://www.w3.org/2000/svg">
    <ellipse cx="246" cy="506.5" rx="246" ry="85.5" fill="#FFF8B5" fill-opacity="0.92"/>
    <path fill-rule="evenodd" clip-rule="evenodd"
          d="M263.078 443.984C284.863 433.775 299.952 411.649 299.952 386C299.952 350.654 271.298 322 235.952 322C200.606 322 171.952 350.654 171.952 386C171.952 411.649 187.04 433.775 208.826 443.984L188.321 479.5C180.623 492.833 190.245 509.5 205.641 509.5H266.263C281.659 509.5 291.281 492.833 283.583 479.5L263.078 443.984Z"
          fill="#3FBCFF"/>
    <circle cx="272.452" cy="370.5" r="5.5" fill="#333333"/>
    <circle cx="214.452" cy="381.5" r="5.5" fill="#333333"/>
    <path
        d="M263.312 386.337C264.289 389.874 263.822 393.654 262.012 396.847C260.202 400.039 257.199 402.382 253.661 403.36C250.124 404.337 246.344 403.87 243.151 402.06C239.959 400.25 237.616 397.246 236.639 393.709L249.975 390.023L263.312 386.337Z"
        fill="#333333"/>
    <path d="M245.5 -120L489.286 499.5H1.71385L245.5 -120Z" fill="#FFF8B5" fill-opacity="0.14"/>
    <ellipse cx="362.5" cy="509.5" rx="27.5" ry="6.5" fill="#333333"/>
    <rect x="358" y="409" width="9" height="98" fill="#333333"/>
    <rect x="335" y="395.084" width="24.4817" height="51.3369" rx="12.2408" transform="rotate(-51.2186 335 395.084)"
          fill="black"/>
    <rect x="371.93" y="390.415" width="10" height="27.5014" transform="rotate(40 371.93 390.415)" fill="#333334"/>
</svg>
